<svg xmlns="http://www.w3.org/2000/svg" viewBox="0 0 223 231.5"><defs><style>.cls-1{fill:none;}.cls-1,.cls-2{stroke:#000;stroke-linecap:round;stroke-linejoin:round;stroke-width:7px;}.cls-2{fill:#fff;}</style></defs><title>자산 6THINNERRRR</title><g id="레이어_2" data-name="레이어 2"><g id="Layer_1" data-name="Layer 1"><path class="cls-1" d="M174.5,75.5H48.5a10,10,0,0,1-10-10v-52a10,10,0,0,1,10-10h126a10,10,0,0,1,10,10v52A10,10,0,0,1,174.5,75.5Z"/><path class="cls-1" d="M209.5,184H13.5a10,10,0,0,1-10-10V86a10,10,0,0,1,10-10h196a10,10,0,0,1,10,10v88A10,10,0,0,1,209.5,184Z"/><path class="cls-2" d="M159.5,228h-96a10,10,0,0,1-10-10V153a10,10,0,0,1,10-10h96a10,10,0,0,1,10,10v65A10,10,0,0,1,159.5,228Z"/><line class="cls-1" x1="86.5" y1="186.5" x2="136.5" y2="186.5"/></g></g></svg>