<svg xmlns="http://www.w3.org/2000/svg" viewBox="0 0 93 91.42"><defs><style>.cls-1,.cls-2{fill:none;}.cls-1,.cls-2,.cls-3{stroke:#000;stroke-width:3px;}.cls-1{stroke-linecap:round;stroke-linejoin:round;}.cls-2,.cls-3{stroke-miterlimit:10;}.cls-3{fill:#659ec7;}</style></defs><title>자산 1LI</title><g id="레이어_2" data-name="레이어 2"><g id="Layer_1" data-name="Layer 1"><line class="cls-1" x1="16.63" y1="40.29" x2="76.37" y2="40.29"/><line class="cls-1" x1="16.63" y1="54.36" x2="76.37" y2="54.36"/><line class="cls-1" x1="16.63" y1="68.42" x2="76.37" y2="68.42"/><path class="cls-2" d="M79.5,89.92h-66a12,12,0,0,1-12-12V13.5a12,12,0,0,1,12-12h66a12,12,0,0,1,12,12V77.92A12,12,0,0,1,79.5,89.92Z"/><circle class="cls-3" cx="46.5" cy="55.34" r="17.87"/><polyline class="cls-1" points="39.29 56.63 45.43 61.7 53.7 48.98"/><path class="cls-2" d="M61.72,26.79H31.27A5.83,5.83,0,0,1,25.46,21h0a5.83,5.83,0,0,1,5.81-5.81H61.72A5.83,5.83,0,0,1,67.53,21h0A5.82,5.82,0,0,1,61.72,26.79Z"/></g></g></svg>