<svg xmlns="http://www.w3.org/2000/svg" viewBox="0 0 92.25 92"><defs><style>.cls-1,.cls-3{fill:none;}.cls-1,.cls-2,.cls-3{stroke:#000;stroke-miterlimit:10;stroke-width:3px;}.cls-2{fill:#659ec7;}.cls-3{stroke-linecap:round;}</style></defs><title>자산 3PR</title><g id="레이어_2" data-name="레이어 2"><g id="Layer_1" data-name="Layer 1"><path class="cls-1" d="M78.75,76.5H13.5a12,12,0,0,1-12-12v-23a12,12,0,0,1,12-12H78.75a12,12,0,0,1,12,12v23A12,12,0,0,1,78.75,76.5Z"/><path class="cls-1" d="M67.12,14.19c0-7-5.4-12.69-12-12.69h-18c-6.6,0-12,5.71-12,12.69V29h42Z"/><polygon class="cls-2" points="62.62 90.5 29.62 90.5 33.47 58.5 59.87 58.5 62.62 90.5"/><line class="cls-3" x1="38.73" y1="82.5" x2="53.52" y2="82.5"/><line class="cls-3" x1="17.62" y1="57.5" x2="74.62" y2="57.5"/></g></g></svg>