<svg xmlns="http://www.w3.org/2000/svg" viewBox="0 0 93 83.84"><defs><style>.cls-1,.cls-3{fill:none;}.cls-1,.cls-2{stroke:#000;}.cls-1,.cls-2,.cls-3{stroke-linecap:round;stroke-linejoin:round;stroke-width:3px;}.cls-2{fill:#659ec7;}.cls-3{stroke:#659ec7;}</style></defs><title>자산 4CA</title><g id="레이어_2" data-name="레이어 2"><g id="Layer_1" data-name="Layer 1"><circle class="cls-1" cx="62.25" cy="43.21" r="6"/><circle class="cls-1" cx="31" cy="43.21" r="6"/><circle class="cls-1" cx="31" cy="63.21" r="6"/><path class="cls-1" d="M1.5,70.34a12,12,0,0,0,12,12h66a12,12,0,0,0,12-12V24.68H1.5Z"/><path class="cls-2" d="M79.5,8.34h-66a12,12,0,0,0-12,12v4.34h90V20.34A12,12,0,0,0,79.5,8.34Z"/><polyline class="cls-3" points="54.75 61.71 61.75 67.71 69.75 58.71"/><line class="cls-1" x1="21.5" y1="1.5" x2="21.5" y2="13.5"/><line class="cls-1" x1="38.17" y1="1.5" x2="38.17" y2="13.5"/><line class="cls-1" x1="54.83" y1="1.5" x2="54.83" y2="13.5"/><line class="cls-1" x1="71.5" y1="1.5" x2="71.5" y2="13.5"/></g></g></svg>