<svg xmlns="http://www.w3.org/2000/svg" viewBox="0 0 93 94"><defs><style>.cls-1{fill:#659ec7;}.cls-1,.cls-2,.cls-3{stroke:#000;stroke-width:3px;}.cls-1,.cls-2{stroke-miterlimit:10;}.cls-2,.cls-3{fill:none;}.cls-3{stroke-linecap:round;stroke-linejoin:round;}</style></defs><title>자산 2SE</title><g id="레이어_2" data-name="레이어 2"><g id="Layer_1" data-name="Layer 1"><circle class="cls-1" cx="27.63" cy="51.09" r="5.74"/><path class="cls-2" d="M84.5,92.5H8.5a7,7,0,0,1-7-7h0c0-3.85,13.15-7,17-7h57c3.85,0,16,3.15,16,7h0A7,7,0,0,1,84.5,92.5Z"/><path class="cls-2" d="M51.5,78.5h-10A3.52,3.52,0,0,1,38,75h0a3.52,3.52,0,0,1,3.5-3.5h10A3.52,3.52,0,0,1,55,75h0A3.52,3.52,0,0,1,51.5,78.5Z"/><polygon class="cls-3" points="65.31 21.95 58.73 33.35 71.89 33.35 65.31 21.95"/><polygon class="cls-3" points="27.63 21.95 21.05 33.35 34.21 33.35 27.63 21.95"/><line class="cls-3" x1="58.5" y1="44.34" x2="72" y2="57.84"/><line class="cls-3" x1="72" y1="44.34" x2="58.5" y2="57.84"/><path class="cls-2" d="M79.5,1.5h-66a12,12,0,0,0-12,12v46a12,12,0,0,0,12,12h66a12,12,0,0,0,12-12v-46A12,12,0,0,0,79.5,1.5ZM3.12,8.5h0Z"/></g></g></svg>