<svg xmlns="http://www.w3.org/2000/svg" viewBox="0 0 77 92"><defs><style>.cls-1,.cls-2{fill:none;}.cls-1,.cls-2,.cls-3{stroke:#000;stroke-width:3px;}.cls-1{stroke-miterlimit:10;}.cls-2,.cls-3{stroke-linecap:round;stroke-linejoin:round;}.cls-3{fill:#659ec7;}</style></defs><title>자산 5DO</title><g id="레이어_2" data-name="레이어 2"><g id="Layer_1" data-name="Layer 1"><path class="cls-1" d="M39,31.5H38a12,12,0,0,1-12-12v-6a12,12,0,0,1,12-12h1a12,12,0,0,1,12,12v6A12,12,0,0,1,39,31.5Z"/><path class="cls-2" d="M24.13,16.5h-2s-17-3,16,37"/><path class="cls-2" d="M52.13,16.5h2s17-3-16,37c0,0-3,25,12,7"/><circle class="cls-3" cx="54.63" cy="56" r="5.5"/><path class="cls-2" d="M75.5,80.5c0-23.75-16.57-43-37-43s-37,19.25-37,43a49.65,49.65,0,0,0,1,10h72A49.66,49.66,0,0,0,75.5,80.5Z"/><line class="cls-2" x1="41.13" y1="31.5" x2="41.13" y2="37.5"/><line class="cls-2" x1="36.13" y1="31.5" x2="36.13" y2="37.5"/></g></g></svg>