<svg xmlns="http://www.w3.org/2000/svg" viewBox="0 0 224.17 234.16"><defs><style>.cls-1,.cls-2{fill:none;stroke:#000;stroke-width:7px;}.cls-1{stroke-linecap:round;stroke-linejoin:round;}.cls-2{stroke-miterlimit:10;}</style></defs><title>자산 3icon2</title><g id="레이어_2" data-name="레이어 2"><g id="Layer_1" data-name="Layer 1"><line class="cls-1" x1="37.67" y1="230.66" x2="37.67" y2="138.16"/><path class="cls-1" d="M75.67,3.66l-.19-.16A73,73,0,0,0,36.8,137.74"/><path class="cls-1" d="M127.67,3.66l0-.12a73,73,0,0,1,67.16,46.6"/><path class="cls-1" d="M196.05,53.49l24.62,64.17h-23v54s3,10-9,11-48,0-48,0v47"/><line class="cls-2" x1="74.17" y1="3.66" x2="127.67" y2="3.66"/><path d="M162.17,56.16a18,18,0,0,0-18-18c-.55,0-1.1,0-1.64.09a20,20,0,0,0-28-9.6,20,20,0,0,0-32.68,0A20,20,0,0,0,52.22,45.22c-.35,0-.7-.06-1-.06a18,18,0,0,0-5.82,35,20.08,20.08,0,0,0-.18,2.47,18.5,18.5,0,0,0,18.5,18.5,18.29,18.29,0,0,0,8.5-2.08v22.08h26V99.57a18.49,18.49,0,0,0,23.92-25.41h24.08v-.11A18,18,0,0,0,162.17,56.16Z"/></g></g></svg>