<svg xmlns="http://www.w3.org/2000/svg" viewBox="0 0 255.5 203.65"><defs><style>.cls-1{fill:none;stroke:#000;stroke-linecap:round;stroke-linejoin:round;stroke-width:10px;}</style></defs><title>자산 2H</title><g id="레이어_2" data-name="레이어 2"><g id="Layer_1" data-name="Layer 1"><polyline class="cls-1" points="250.5 107.82 162 107.82 148.5 84.32 121 131.82 93 68.82 76 107.82 5 106.82"/><path d="M148.55,66.32l17,27h51s15-18.79,13.23-35.43c.1-10.07-2-24.19-12.23-35.57,0,0-46-54-96,6,0,0-20-30-50-28s-44,19-44,19-23,26-10,62c0,0,6,10,10,12h44l16-37s2.27-9.18,8,0c5,8,26,52,26,52l24-41A2.71,2.71,0,0,1,148,65.79Z"/><path d="M39.75,121.32l79,81s3,3,6,0,79-81,79-81h-46l-9-19-21,43s-5.08,8.07-12,0l-24-54-13,30Z"/></g></g></svg>