<svg xmlns="http://www.w3.org/2000/svg" viewBox="0 0 270.24 270.1"><defs><style>.cls-1{fill:none;stroke:#000;stroke-miterlimit:10;stroke-width:15px;}</style></defs><title>자산 1H</title><g id="레이어_2" data-name="레이어 2"><g id="Layer_1" data-name="Layer 1"><path class="cls-1" d="M261.62,100.43a31.09,31.09,0,1,0-45.88,27.34c.92,6.71,1.16,21.92-2.06,50.93-6,53.94-55.43,53.19-55.43,53.19-59.18-8.24-55.44-50.19-55.44-50.19,59.18-13.48,62.74-71.91,62.74-71.91s.19-71.91.19-83.15-13.2-12.25-13.2-12.25L125.29,8.66l-11,29.22,20,5.24-.18,66.67S123,154,83.68,151.15s-44.54-40.61-44.54-40.61V43.12L58.89,38,48.13,8.66l-33,6.89C9,17.2,7.5,24.41,7.5,24.41v85.38c5.81,61.42,63.1,71.91,63.1,71.91,9,80.9,86.9,80.9,86.9,80.9,82.39-5.24,87.17-76,87.17-76l.43-58.68A31.08,31.08,0,0,0,261.62,100.43Z"/><circle class="cls-1" cx="230.91" cy="100.05" r="31.84"/></g></g></svg>