<svg xmlns="http://www.w3.org/2000/svg" viewBox="0 0 204.93 194.33"><defs><style>.cls-1{fill:none;stroke:#000;stroke-linecap:round;stroke-linejoin:round;stroke-width:7px;}</style></defs><title>자산 1</title><g id="레이어_2" data-name="레이어 2"><g id="Layer_1" data-name="Layer 1"><path class="cls-1" d="M97.87,173V151.71h-7.4A12.47,12.47,0,0,1,84.25,150l-13-7.57a12.5,12.5,0,0,1-5.84-7.74l-1.75-6.85a12.56,12.56,0,0,1,2.53-11.17l6.65-8a12.42,12.42,0,0,1,6.51-4.09l4.81-1.21,9.38-.66V95.7"/><path class="cls-1" d="M113.37,95.7v7.09l8.23.66,4.81,1.21a12.46,12.46,0,0,1,6.51,4.09l6.65,8a12.56,12.56,0,0,1,2.53,11.17l-1.75,6.85a12.5,12.5,0,0,1-5.84,7.74l-13,7.57a12.48,12.48,0,0,1-6.23,1.67h-7.39V173"/><path class="cls-1" d="M155.56,68.65c-4.67,42.85,7.33,92.85,45.87,116"/><path class="cls-1" d="M52.72,72.9c2.17,25.6.17,51.6-10.83,75.6-6,13-13,24-24,33a30.39,30.39,0,0,0-7,5c-2,2-5,3-7.39,4.33"/><line class="cls-1" x1="58.5" y1="161.44" x2="47.89" y2="173.5"/><line class="cls-1" x1="70.96" y1="166.37" x2="63.43" y2="180.56"/><line class="cls-1" x1="149.28" y1="161.44" x2="159.89" y2="173.5"/><line class="cls-1" x1="136.82" y1="166.37" x2="144.35" y2="180.56"/><path class="cls-1" d="M6.89,3.5C18.46,50.92,57,85.77,102.72,85.77S187,50.92,198.56,3.5"/><path class="cls-1" d="M70.76,19.1s29.83,35.46,65.34,0"/><polyline class="cls-1" points="70.41 17.68 92.92 3.5 104.93 6.34 113.94 3.5 136.45 17.68"/><path class="cls-1" d="M74.39,15s31,17,58,0"/></g></g></svg>