<svg xmlns="http://www.w3.org/2000/svg" viewBox="0 0 204 478"><defs><style>.cls-1{fill:none;stroke:#000;stroke-linecap:round;stroke-linejoin:round;stroke-width:12px;}</style></defs><title>자산 1M1</title><g id="레이어_2" data-name="레이어 2"><g id="Layer_1" data-name="Layer 1"><path d="M107.12,12A85.15,85.15,0,0,1,192,96.88V288.12A85.15,85.15,0,0,1,107.12,373H96.88A85.15,85.15,0,0,1,12,288.12V96.88A85.15,85.15,0,0,1,96.88,12h10.24m0-12H96.88C43.6,0,0,43.6,0,96.88V288.12C0,341.4,43.6,385,96.88,385h10.24C160.4,385,204,341.4,204,288.12V96.88C204,43.6,160.4,0,107.12,0Z"/><path d="M101.25,85.91a39.63,39.63,0,0,1,2,13.09,39.63,39.63,0,0,1-2,13.09,39.63,39.63,0,0,1-2-13.09,39.63,39.63,0,0,1,2-13.09m0-15.91c-7.73,0-14,13-14,29s6.27,29,14,29,14-13,14-29-6.27-29-14-29Z"/><line class="cls-1" x1="136.25" y1="437" x2="102.25" y2="472"/><line class="cls-1" x1="67.25" y1="437" x2="101.25" y2="472"/></g></g></svg>