<svg xmlns="http://www.w3.org/2000/svg" viewBox="0 0 251.32 250.74"><defs><style>.cls-1{fill:none;stroke:#000;stroke-miterlimit:10;stroke-width:25px;}</style></defs><title>자산 1ZOOMIN</title><g id="레이어_2" data-name="레이어 2"><g id="Layer_1" data-name="Layer 1"><path d="M141,118H69a10,10,0,0,1-10-10v-5A10,10,0,0,1,69,93h72a10,10,0,0,1,10,10v5A10,10,0,0,1,141,118Z"/><path d="M92.49,69.5v72a10,10,0,0,0,10,10h5a10,10,0,0,0,10-10v-72a10,10,0,0,0-10-10h-5A10,10,0,0,0,92.49,69.5Z"/><circle class="cls-1" cx="105.5" cy="105.5" r="93"/><path d="M229.31,247.82l-63.64-63.64a10,10,0,0,1,0-14.14l5-4.95a10,10,0,0,1,14.14,0l63.64,63.64a10,10,0,0,1,0,14.14l-5,4.95A10,10,0,0,1,229.31,247.82Z"/></g></g></svg>