<?xml version="1.0" encoding="utf-8"?>
<!-- Generator: Adobe Illustrator 24.0.2, SVG Export Plug-In . SVG Version: 6.00 Build 0)  -->
<svg version="1.1" xmlns="http://www.w3.org/2000/svg" xmlns:xlink="http://www.w3.org/1999/xlink" x="0px" y="0px"
	 viewBox="0 0 1920 1080" style="enable-background:new 0 0 1920 1080;" xml:space="preserve">
<style type="text/css">
	.st0{fill:#9BC4E2;}
	.st1{fill:#659EC7;}
	.st2{fill:none;}
	.st3{fill:#FFFFFF;}
	.st4{font-family:'NotoSansKR-Bold-KSCpc-EUC-H';}
	.st5{font-size:150px;}
	.st6{font-family:'NotoSansKR-Medium-KSCpc-EUC-H';}
	.st7{font-size:50px;}
</style>
<g id="Layer_1">
	<path class="st0" d="M563.41,437h-46.26c-5.39,0-10.57-2.04-14.51-5.71l-22.43-20.89c-4.24-3.95-6.08-9.91-4.61-15.51
		c1.17-4.46,1.64-9.2,1.28-14.1c-1.55-21.33-18.94-38.47-40.29-39.72c-25.67-1.5-46.82,19.52-45.53,45.14
		c1.09,21.72,18.63,39.42,40.34,40.71c1.65,0.1,4.88,0.02,4.88,0.02L451,429l15.68,9.25l8.31,7.74l1.66,2.18
		c0.62,0.82,1.16,1.7,1.61,2.63l7.42,15.47c0,0,2.33,8.22,2.33,12.5v4.02l-1.25,9.59c-0.1,0.74-0.29,1.47-0.56,2.16l-5.79,14.42
		c-0.99,2.47-2.43,4.74-4.25,6.7l0,0l-7.01,7.53c-0.79,0.85-1.69,1.6-2.69,2.19c-7.91,4.73-16.24,8.47-23.59,10.3
		c-0.94,0.23-1.91,0.33-2.87,0.33l-10.79,0c-10.51,0-20.63-3.96-28.34-11.1l-4.49-4.15l-4.64-4.29
		c-8.71-8.05-12.86-19.72-11.85-31.53c0.08-0.96,0.13-1.94,0.13-2.93c0-24.3-20.16-43.9-44.68-42.97
		c-22.29,0.85-40.44,19.01-41.29,41.29C293.1,504.84,312.7,525,337,525c1.63,0,3.23-0.09,4.81-0.27c8.86-0.99,17.69,2.04,24.22,8.12
		L377,543.07c5.74,5.35,9,12.84,9,20.68v47.66c0,6.95,5.64,12.59,12.59,12.59h62.82c6.95,0,12.59-5.64,12.59-12.59v-43.29
		c0-4.32,1.63-8.47,4.58-11.63l25.06-26.91c2.72-2.92,6.53-4.58,10.52-4.58h49.25c6.95,0,12.59-5.64,12.59-12.59v-62.82
		C576,442.64,570.36,437,563.41,437z"/>
	<path class="st1" d="M206.78,525.36l48.08,0.24c4.59,0.02,9.01,1.78,12.35,4.93l19.64,18.47c6,5.64,8.92,13.94,7.4,22.04
		c-0.57,3.02-0.82,6.15-0.72,9.35c0.7,22.14,18.51,40.37,40.64,41.54c25.44,1.35,46.44-19.45,45.3-44.92
		c-0.93-20.75-19.29-39.53-40.01-40.92c-1.76-0.12-3.49-0.13-5.2-0.04c-11.11,0.58-21.92-3.73-30.02-11.35l-6.12-5.76
		c-9.72-9.14-15.2-21.9-15.13-35.24l0.01-2.69c0.07-13.64,5.3-26.74,14.64-36.68l2.83-3.01c0.84-0.89,2.8-2.37,2.8-2.37l10.97-6.88
		c1.17-0.73,2.44-1.27,3.78-1.61l14.04-3.52l13.02,0.06c0,0,16.82,3.33,23.07,9.21l11.28,10.61c8.51,8.01,12.66,19.48,11.72,31.13
		c-0.13,1.6-0.17,3.23-0.12,4.88c0.7,22.15,18.52,40.37,40.64,41.55c25.45,1.35,46.44-19.47,45.29-44.94
		c-0.94-20.74-19.3-39.52-40.02-40.9c-3.91-0.26-7.72,0-11.36,0.73c-5.72,1.14-11.63-0.62-15.87-4.61l-16.55-15.57
		c-4.98-4.68-7.79-11.22-7.75-18.06l0.25-49.83c0.03-6.6-5.34-12.03-11.94-12.06l-64-0.31c-6.6-0.03-12.03,5.34-12.06,11.94
		l-0.21,42.24c-0.03,5.37-2.09,10.53-5.76,14.44l-22.98,24.44c-3.43,3.65-8.22,5.7-13.22,5.68l-48.25-0.24
		c-6.6-0.03-12.03,5.34-12.06,11.94l-0.31,64C194.8,519.91,200.18,525.33,206.78,525.36z"/>
	<g>
		<path class="st1" d="M765.2,479.67v-0.72c21.41-7.93,31.21-23.65,31.21-40.33c0-17.4-9.36-30.33-22.66-37.39
			c-13.9-8.06-30.02-10.64-56.21-10.64c-21.52,0-44.16,1.9-55.46,4.08v17.2v0.21l19.41,0.3c24.48,1.12,64.16,5.7,71.4,25.19
			c0.01,0.12,0.02,0.23,0.02,0.33c0.32,0.8,0.45,1.7,0.38,2.57c0,0.07-0.01,0.14-0.02,0.21c0.07,0.31,0.1,0.63,0.08,0.97
			c0,0.42-0.06,0.83-0.12,1.24c0.01,0.29,0.02,0.58,0.02,0.87c0,14.1-11.88,23.52-34.65,23.52h-13.93v-42.44h-42.58v16.99
			c-4.38,22.04-40.91,21.73-40.59,21.43v12.97c29.57,0,38.12,0,40.59,0v104.66c9.63,1.41,25.27,2.8,46.45,2.8
			c37.84,0,60.79-6.09,74.73-17.26c11.77-9.36,19.77-22.91,19.77-40.28C803.04,501.87,786.9,485.35,765.2,479.67z M721.15,551.96
			c-7.26,0-12.36-0.07-16.48-0.77v-53.31h14.69c21.43,0.02,38.47,7.6,38.47,26.58C757.83,544.44,740.67,551.96,721.15,551.96z"/>
		<g>
			<g>
				<path class="st1" d="M862.58,395.72v72.94h70.86v-72.94h42.97v189.65h-42.97V506h-70.86v79.36H819.6V395.72H862.58z"/>
			</g>
		</g>
		<g>
			<g>
				<path class="st1" d="M1004.96,541.1c11.38,6.1,29.26,11.91,47.64,11.91c19.74,0,30.2-8.18,30.2-20.66
					c0-11.65-9.07-18.51-31.82-26.51c-31.71-11.22-52.43-28.46-52.43-56.16c0-32.33,27.21-56.92,71.9-56.92
					c21.67,0,37.32,4.29,48.53,9.54l-9.5,34.39c-7.54-3.59-21.22-9-39.67-9c-18.71,0-27.65,8.64-27.65,18.34
					c0,12.05,10.53,17.37,35.18,26.66c33.65,12.55,49.23,29.98,49.23,56.79c0,31.67-24.3,58.84-76.62,58.84
					c-21.54,0-43.09-5.84-53.69-11.79L1004.96,541.1z"/>
			</g>
		</g>
	</g>
	<g>
		<rect x="1175.29" y="449.38" class="st2" width="554.71" height="134.26"/>
		<text transform="matrix(1 0 0 1 1175.2898 569.0782)" class="st3 st4 st5">한서병원</text>
		<rect x="1175.29" y="381.32" class="st2" width="554.71" height="56.32"/>
		<text transform="matrix(1 0 0 1 1175.2898 421.1661)" class="st3 st6 st7">이시래 기념 Beg Han Seo</text>
	</g>
</g>
<g id="Layer_2">
</g>
</svg>
