<?xml version="1.0" encoding="utf-8"?>
<!-- Generator: Adobe Illustrator 24.0.2, SVG Export Plug-In . SVG Version: 6.00 Build 0)  -->
<svg version="1.1" id="Layer_1" xmlns="http://www.w3.org/2000/svg" xmlns:xlink="http://www.w3.org/1999/xlink" x="0px" y="0px"
	 viewBox="0 0 1920 1080" style="enable-background:new 0 0 1920 1080;" xml:space="preserve">
<style type="text/css">
	.st0{fill:#9BC4E2;}
	.st1{fill:#659EC7;}
</style>
<path class="st0" d="M944.41,439h-46.26c-5.39,0-10.57-2.04-14.51-5.71l-22.43-20.89c-4.24-3.95-6.08-9.91-4.61-15.51
	c1.17-4.46,1.64-9.2,1.28-14.1c-1.55-21.33-18.94-38.47-40.29-39.72c-25.67-1.5-46.82,19.52-45.53,45.14
	c1.09,21.72,18.63,39.42,40.34,40.71c1.65,0.1,4.88,0.02,4.88,0.02L832,431l15.68,9.25l8.31,7.74l1.66,2.18
	c0.62,0.82,1.16,1.7,1.61,2.63l7.42,15.47c0,0,2.33,8.22,2.33,12.5v4.02l-1.25,9.59c-0.1,0.74-0.29,1.47-0.56,2.16l-5.79,14.42
	c-0.99,2.47-2.43,4.74-4.25,6.7l0,0l-7.01,7.53c-0.79,0.85-1.69,1.6-2.69,2.19c-7.91,4.73-16.24,8.47-23.59,10.3
	c-0.94,0.23-1.91,0.33-2.87,0.33l-10.79,0c-10.51,0-20.63-3.96-28.34-11.1l-4.49-4.15l-4.64-4.29
	c-8.71-8.05-12.86-19.72-11.85-31.53c0.08-0.96,0.13-1.94,0.13-2.93c0-24.3-20.16-43.9-44.68-42.97
	c-22.29,0.85-40.45,19.01-41.29,41.29C674.1,506.84,693.7,527,718,527c1.63,0,3.23-0.09,4.81-0.27c8.86-0.99,17.69,2.04,24.22,8.12
	L758,545.07c5.74,5.35,9,12.84,9,20.68v47.66c0,6.95,5.64,12.59,12.59,12.59h62.82c6.95,0,12.59-5.64,12.59-12.59v-43.29
	c0-4.32,1.63-8.47,4.58-11.63l25.06-26.91c2.72-2.92,6.53-4.58,10.52-4.58h49.25c6.95,0,12.59-5.64,12.59-12.59v-62.82
	C957,444.64,951.36,439,944.41,439z"/>
<path class="st1" d="M587.78,527.36l48.08,0.24c4.59,0.02,9.01,1.78,12.35,4.93l19.64,18.47c6,5.64,8.92,13.94,7.4,22.04
	c-0.57,3.02-0.82,6.15-0.72,9.35c0.7,22.14,18.51,40.37,40.64,41.54c25.44,1.35,46.44-19.45,45.3-44.92
	c-0.93-20.75-19.29-39.53-40.01-40.92c-1.76-0.12-3.49-0.13-5.2-0.04c-11.11,0.58-21.92-3.73-30.02-11.35l-6.12-5.76
	c-9.72-9.14-15.2-21.9-15.13-35.24l0.01-2.69c0.07-13.64,5.3-26.74,14.64-36.68l2.83-3.01c0.84-0.89,2.8-2.37,2.8-2.37l10.97-6.88
	c1.17-0.73,2.44-1.27,3.78-1.61l14.04-3.52l13.02,0.06c0,0,16.82,3.33,23.07,9.21l11.28,10.61c8.51,8.01,12.66,19.48,11.72,31.13
	c-0.13,1.6-0.17,3.23-0.12,4.88c0.7,22.15,18.52,40.37,40.64,41.55c25.45,1.35,46.44-19.47,45.29-44.94
	c-0.94-20.74-19.3-39.52-40.02-40.9c-3.91-0.26-7.72,0-11.36,0.73c-5.72,1.14-11.63-0.62-15.87-4.61l-16.55-15.57
	c-4.98-4.68-7.79-11.22-7.75-18.06l0.25-49.83c0.03-6.6-5.34-12.03-11.94-12.06l-64-0.31c-6.6-0.03-12.03,5.34-12.06,11.94
	l-0.21,42.24c-0.03,5.37-2.09,10.53-5.76,14.44l-22.98,24.44c-3.43,3.65-8.22,5.7-13.22,5.68l-48.25-0.24
	c-6.6-0.03-12.03,5.34-12.06,11.94l-0.31,64C575.8,521.91,581.18,527.33,587.78,527.36z"/>
</svg>
